# Blender v2.91.2 OBJ File: 'barrel.blend'
# www.blender.org
mtllib barrel.mtl
o Cylinder
v 0.000000 -1.000000 -0.956858
v 0.000000 1.000000 -0.942840
v 0.676601 -1.000000 -0.676601
v 0.666689 1.000000 -0.666689
v 0.956858 -1.000000 0.000000
v 0.942840 1.000000 0.000000
v 0.676601 -1.000000 0.676601
v 0.666689 1.000000 0.666689
v -0.000000 -1.000000 0.956858
v -0.000000 1.000000 0.942840
v -0.676601 -1.000000 0.676601
v -0.666689 1.000000 0.666689
v -0.956858 -1.000000 -0.000000
v -0.942840 1.000000 -0.000000
v -0.676601 -1.000000 -0.676601
v -0.666689 1.000000 -0.666689
v 0.000000 -0.647544 -1.079239
v 0.000000 -0.228943 -1.144714
v 0.000000 0.228943 -1.144714
v 0.000000 0.647544 -1.079239
v 0.763137 0.647544 -0.763137
v 0.809435 0.228943 -0.809435
v 0.809435 -0.228943 -0.809435
v 0.763137 -0.647544 -0.763137
v 1.079239 0.647544 0.000000
v 1.144714 0.228943 0.000000
v 1.144714 -0.228943 0.000000
v 1.079239 -0.647544 0.000000
v 0.763137 0.647544 0.763137
v 0.809435 0.228943 0.809435
v 0.809435 -0.228943 0.809435
v 0.763137 -0.647544 0.763137
v -0.000000 0.647544 1.079239
v -0.000000 0.228943 1.144714
v -0.000000 -0.228943 1.144714
v -0.000000 -0.647544 1.079239
v -0.763138 0.647544 0.763137
v -0.809435 0.228943 0.809435
v -0.809435 -0.228943 0.809435
v -0.763138 -0.647544 0.763137
v -1.079239 0.647544 -0.000000
v -1.144714 0.228943 -0.000000
v -1.144714 -0.228943 -0.000000
v -1.079239 -0.647544 -0.000000
v -0.763138 0.647544 -0.763137
v -0.809435 0.228943 -0.809435
v -0.809435 -0.228943 -0.809435
v -0.763138 -0.647544 -0.763137
v 0.707107 1.000000 -0.707107
v 0.000000 1.000000 -1.000000
v 1.000000 1.000000 0.000000
v 0.707107 1.000000 0.707107
v -0.000000 1.000000 1.000000
v -0.707107 1.000000 0.707107
v -1.000000 1.000000 -0.000000
v -0.707107 1.000000 -0.707107
v 0.666689 0.949085 -0.666689
v 0.000000 0.949085 -0.942840
v 0.942840 0.949085 0.000000
v 0.666689 0.949085 0.666689
v -0.000000 0.949085 0.942840
v -0.666689 0.949085 0.666689
v -0.942840 0.949085 -0.000000
v -0.666689 0.949085 -0.666689
v 0.000000 -1.000000 -1.000000
v 0.707107 -1.000000 -0.707107
v 1.000000 -1.000000 0.000000
v 0.707107 -1.000000 0.707107
v -0.000000 -1.000000 1.000000
v -0.707107 -1.000000 0.707107
v -1.000000 -1.000000 -0.000000
v -0.707107 -1.000000 -0.707107
v -0.000000 -0.964091 -0.956858
v 0.676601 -0.964091 -0.676601
v 0.956858 -0.964091 0.000000
v 0.676601 -0.964091 0.676601
v -0.000000 -0.964091 0.956858
v -0.676601 -0.964091 0.676601
v -0.956858 -0.964091 -0.000000
v -0.676601 -0.964091 -0.676601
v 0.000000 0.823772 -1.039620
v 0.735122 0.823772 -0.735122
v 1.039620 0.823772 0.000000
v 0.735122 0.823772 0.735122
v -0.000000 0.823772 1.039620
v -0.735122 0.823772 0.735122
v -1.039620 0.823772 -0.000000
v -0.735122 0.823772 -0.735122
v 0.735122 -0.823772 -0.735122
v 1.039620 -0.823772 0.000000
v 0.735122 -0.823772 0.735122
v -0.000000 -0.823772 1.039620
v -0.735122 -0.823772 0.735122
v -1.039620 -0.823772 -0.000000
v -0.735122 -0.823772 -0.735122
v 0.000000 -0.823772 -1.039620
v 0.000000 -0.827615 -1.084966
v 0.000000 -0.643700 -1.126314
v -0.796425 -0.643700 -0.796424
v -1.126314 -0.643700 -0.000000
v -0.796425 -0.643700 0.796424
v -0.000000 -0.643700 1.126314
v 0.796424 -0.643700 0.796424
v 1.126314 -0.643700 0.000000
v 0.796424 -0.643700 -0.796424
v 0.767187 -0.827615 -0.767187
v 1.084966 -0.827615 0.000000
v 0.767187 -0.827615 0.767187
v -0.000000 -0.827615 1.084966
v -0.767187 -0.827615 0.767187
v -1.084966 -0.827615 -0.000000
v -0.767187 -0.827615 -0.767187
v 0.767748 0.827682 -0.767748
v 0.797006 0.643633 -0.797006
v 1.085759 0.827682 0.000000
v 1.127137 0.643633 0.000000
v 0.767748 0.827682 0.767748
v 0.797006 0.643633 0.797006
v -0.000000 0.827682 1.085759
v -0.000000 0.643633 1.127137
v -0.767748 0.827682 0.767748
v -0.797006 0.643633 0.797006
v -1.085759 0.827682 -0.000000
v -1.127137 0.643633 -0.000000
v -0.767748 0.827682 -0.767748
v -0.797006 0.643633 -0.797006
v 0.000000 0.643633 -1.127137
v 0.000000 0.827682 -1.085759
vt 1.000000 1.000000
vt 0.875000 0.950000
vt 1.000000 0.950000
vt 0.750000 1.000000
vt 0.750000 0.950000
vt 0.625000 0.950000
vt 0.625000 1.000000
vt 0.500000 0.950000
vt 0.500000 1.000000
vt 0.375000 0.950000
vt 0.375000 1.000000
vt 0.250000 0.950000
vt 0.089995 0.410005
vt 0.250000 0.476282
vt 0.250000 0.476282
vt 0.125000 1.000000
vt 0.125000 0.950000
vt 0.000000 0.950000
vt 0.587616 0.412384
vt 0.520354 0.250000
vt 0.520354 0.250000
vt 0.875000 0.550000
vt 0.750000 0.550000
vt 0.750000 0.550000
vt 0.125000 0.700000
vt 0.000000 0.600000
vt 0.125000 0.600000
vt 0.125000 0.800000
vt 0.000000 0.700000
vt 0.125000 0.900000
vt 0.000000 0.800000
vt 0.750000 0.600000
vt 0.875000 0.600000
vt 0.875000 0.600000
vt 0.250000 0.700000
vt 0.250000 0.600000
vt 0.250000 0.800000
vt 0.250000 0.900000
vt 1.000000 0.550000
vt 0.875000 0.550000
vt 0.375000 0.700000
vt 0.375000 0.600000
vt 0.375000 0.800000
vt 0.375000 0.900000
vt 0.625000 0.600000
vt 0.500000 0.600000
vt 0.625000 0.600000
vt 0.500000 0.700000
vt 0.500000 0.600000
vt 0.500000 0.800000
vt 0.500000 0.900000
vt 0.125000 0.550000
vt 0.000000 0.550000
vt 0.000000 0.550000
vt 0.625000 0.700000
vt 0.625000 0.800000
vt 0.625000 0.900000
vt 0.375000 0.600000
vt 0.750000 0.700000
vt 0.750000 0.800000
vt 0.750000 0.900000
vt 0.250000 0.550000
vt 0.125000 0.550000
vt 0.875000 0.800000
vt 0.875000 0.700000
vt 0.875000 0.900000
vt 0.000000 0.600000
vt 0.125000 0.600000
vt 1.000000 0.700000
vt 1.000000 0.600000
vt 1.000000 0.800000
vt 1.000000 0.900000
vt 0.419706 0.419706
vt 0.250000 0.490000
vt 0.476282 0.250000
vt 0.410005 0.410005
vt 0.419706 0.080294
vt 0.490000 0.250000
vt 0.250000 0.023718
vt 0.410005 0.089995
vt 0.089995 0.089995
vt 0.250000 0.010000
vt 0.023718 0.250000
vt 0.080294 0.080294
vt 0.080294 0.419706
vt 0.010000 0.250000
vt 0.023718 0.250000
vt 0.250000 0.023718
vt 0.476282 0.250000
vt 0.089995 0.410005
vt 0.089995 0.089995
vt 0.410005 0.089995
vt 0.410005 0.410005
vt 0.750000 0.479646
vt 0.919706 0.419706
vt 0.912384 0.412384
vt 0.990000 0.250000
vt 0.979646 0.250000
vt 0.919706 0.080294
vt 0.912384 0.087616
vt 0.750000 0.010000
vt 0.750000 0.020354
vt 0.587616 0.087616
vt 0.580294 0.080294
vt 0.510000 0.250000
vt 0.580294 0.419706
vt 0.750000 0.490000
vt 0.912384 0.412384
vt 0.912384 0.087616
vt 0.587616 0.087616
vt 0.750000 0.020354
vt 0.979646 0.250000
vt 0.750000 0.479646
vt 0.587616 0.412384
vt 0.000000 0.900000
vt 0.000000 0.900000
vt 0.375000 0.950000
vt 0.250000 0.950000
vt 0.875000 0.900000
vt 0.625000 0.900000
vt 0.125000 0.950000
vt 0.375000 0.900000
vt 1.000000 0.950000
vt 1.000000 0.500000
vt 0.875000 0.500000
vt 0.750000 0.500000
vt 0.625000 0.550000
vt 0.625000 0.500000
vt 0.500000 0.550000
vt 0.500000 0.500000
vt 0.375000 0.500000
vt 0.375000 0.550000
vt 0.250000 0.500000
vt 0.125000 0.500000
vt 0.000000 0.500000
vt 0.250000 0.550000
vt 0.375000 0.550000
vt 0.500000 0.550000
vt 0.625000 0.550000
vt 0.750000 0.600000
vt 1.000000 0.600000
vt 1.000000 0.550000
vt 0.250000 0.600000
vt 0.125000 0.900000
vt 0.250000 0.900000
vt 0.500000 0.900000
vt 0.625000 0.950000
vt 0.750000 0.900000
vt 0.875000 0.950000
vt 1.000000 0.900000
vt 0.500000 0.950000
vt 0.750000 0.950000
vt 0.875000 1.000000
vt 0.250000 1.000000
vt 0.000000 1.000000
vt 0.000000 0.950000
vn 0.3747 0.2034 -0.9046
vn 0.9046 0.2034 -0.3747
vn 0.9046 0.2034 0.3747
vn 0.3747 0.2034 0.9046
vn -0.3747 0.2034 0.9046
vn -0.9046 0.2034 0.3747
vn 0.3827 0.0000 0.9239
vn -0.9046 0.2034 -0.3747
vn -0.3747 0.2034 -0.9046
vn 0.9239 -0.0000 0.3827
vn -0.0844 -0.9958 0.0350
vn -0.3787 -0.1430 -0.9144
vn -0.3827 0.0000 -0.9239
vn -0.3787 0.1430 -0.9144
vn -0.0813 0.9961 0.0337
vn -0.9144 -0.1430 -0.3787
vn -0.9239 0.0000 -0.3827
vn -0.9144 0.1430 -0.3787
vn -0.0350 -0.9958 0.0844
vn -0.9144 -0.1430 0.3787
vn -0.9239 0.0000 0.3827
vn -0.9144 0.1430 0.3787
vn -0.0337 0.9961 -0.0813
vn -0.3787 -0.1430 0.9144
vn -0.3827 0.0000 0.9239
vn -0.3787 0.1430 0.9144
vn 0.0350 -0.9958 0.0844
vn 0.3787 -0.1430 0.9144
vn 0.3787 0.1430 0.9144
vn 0.0813 0.9961 -0.0337
vn 0.9144 -0.1430 0.3787
vn 0.9144 0.1430 0.3787
vn 0.0844 -0.9958 0.0350
vn 0.9144 -0.1430 -0.3787
vn 0.9239 0.0000 -0.3827
vn 0.9144 0.1430 -0.3787
vn 0.0337 0.9961 0.0813
vn 0.3787 -0.1430 -0.9144
vn 0.3827 0.0000 -0.9239
vn 0.3787 0.1430 -0.9144
vn 0.0000 1.0000 0.0000
vn 0.0000 -1.0000 0.0000
vn 0.0337 -0.9961 0.0813
vn 0.0844 0.9958 -0.0350
vn 0.0844 0.9958 0.0350
vn -0.0337 -0.9961 0.0813
vn -0.0813 -0.9961 -0.0337
vn 0.0350 0.9958 0.0844
vn 0.0337 -0.9961 -0.0813
vn -0.0350 0.9958 0.0844
vn 0.3747 -0.2034 -0.9046
vn 0.9046 -0.2034 -0.3747
vn 0.9046 -0.2034 0.3747
vn 0.3747 -0.2034 0.9046
vn -0.3747 -0.2034 0.9046
vn -0.9046 -0.2034 0.3747
vn -0.9046 -0.2034 -0.3747
vn -0.3747 -0.2034 -0.9046
vn -0.0844 -0.9958 -0.0350
vn 0.0813 0.9961 0.0337
vn -0.0350 -0.9958 -0.0844
vn 0.0337 0.9961 -0.0813
vn -0.0813 0.9961 -0.0337
vn 0.0350 -0.9958 -0.0844
vn -0.0337 0.9961 0.0813
vn 0.0844 -0.9958 -0.0350
vn 0.0350 0.9958 -0.0844
vn 0.0813 -0.9961 -0.0337
vn -0.0337 -0.9961 -0.0813
vn -0.0350 0.9958 -0.0844
vn -0.0813 -0.9961 0.0337
vn -0.0844 0.9958 -0.0350
vn -0.0844 0.9958 0.0350
vn 0.0813 -0.9961 0.0337
usemtl Material
s off
f 50/1/1 82/2/1 81/3/1
f 82/2/2 51/4/2 83/5/2
f 51/4/3 84/6/3 83/5/3
f 52/7/4 85/8/4 84/6/4
f 53/9/5 86/10/5 85/8/5
f 54/11/6 87/12/6 86/10/6
f 16/13/7 58/14/7 2/15/7
f 87/12/8 56/16/8 88/17/8
f 56/16/9 81/18/9 88/17/9
f 15/19/10 79/20/10 13/21/10
f 89/22/11 107/23/11 90/24/11
f 47/25/12 17/26/12 48/27/12
f 46/28/13 18/29/13 47/25/13
f 45/30/14 19/31/14 46/28/14
f 28/32/15 105/33/15 24/34/15
f 43/35/16 48/27/16 44/36/16
f 42/37/17 47/25/17 43/35/17
f 41/38/18 46/28/18 42/37/18
f 96/39/19 106/40/19 89/22/19
f 39/41/20 44/36/20 40/42/20
f 38/43/21 43/35/21 39/41/21
f 37/44/22 42/37/22 38/43/22
f 32/45/23 102/46/23 103/47/23
f 35/48/24 40/42/24 36/49/24
f 34/50/25 39/41/25 35/48/25
f 33/51/26 38/43/26 34/50/26
f 95/52/27 97/53/27 96/54/27
f 31/55/28 36/49/28 32/45/28
f 30/56/7 35/48/7 31/55/7
f 29/57/29 34/50/29 30/56/29
f 44/36/30 101/58/30 40/42/30
f 27/59/31 32/45/31 28/32/31
f 26/60/10 31/55/10 27/59/10
f 25/61/32 30/56/32 26/60/32
f 94/62/33 112/63/33 95/52/33
f 24/34/34 27/59/34 28/32/34
f 22/64/35 27/59/35 23/65/35
f 21/66/36 26/60/36 22/64/36
f 48/27/37 98/67/37 99/68/37
f 18/69/38 24/34/38 17/70/38
f 19/71/39 23/65/39 18/69/39
f 20/72/40 22/64/40 19/71/40
f 2/15/41 49/73/41 50/74/41
f 6/75/41 49/73/41 4/76/41
f 6/75/41 52/77/41 51/78/41
f 10/79/41 52/77/41 8/80/41
f 12/81/41 53/82/41 10/79/41
f 14/83/41 54/84/41 12/81/41
f 14/83/41 56/85/41 55/86/41
f 2/15/41 56/85/41 16/13/41
f 63/87/41 61/88/41 59/89/41
f 12/81/35 63/87/35 14/83/35
f 8/80/13 61/88/13 10/79/13
f 4/76/21 59/89/21 6/75/21
f 14/83/10 64/90/10 16/13/10
f 10/79/39 62/91/39 12/81/39
f 6/75/17 60/92/17 8/80/17
f 2/15/25 57/93/25 4/76/25
f 1/94/42 66/95/42 3/96/42
f 3/96/42 67/97/42 5/98/42
f 5/98/42 68/99/42 7/100/42
f 7/100/42 69/101/42 9/102/42
f 11/103/42 69/101/42 70/104/42
f 11/103/42 71/105/42 13/21/42
f 15/19/42 71/105/42 72/106/42
f 15/19/42 65/107/42 1/94/42
f 74/108/42 76/109/42 78/110/42
f 11/103/39 77/111/39 9/102/39
f 7/100/17 75/112/17 5/98/17
f 3/96/25 73/113/25 1/94/25
f 1/94/7 80/114/7 15/19/7
f 13/21/35 78/110/35 11/103/35
f 9/102/13 76/109/13 7/100/13
f 5/98/21 74/108/21 3/96/21
f 45/30/43 127/115/43 20/116/43
f 87/12/44 121/117/44 86/10/44
f 88/17/45 123/118/45 87/12/45
f 20/72/46 114/119/46 21/66/46
f 25/61/47 118/120/47 29/57/47
f 81/18/48 125/121/48 88/17/48
f 33/51/49 122/122/49 37/44/49
f 82/2/50 128/123/50 81/3/50
f 65/124/51 89/22/51 66/125/51
f 89/22/52 67/126/52 66/125/52
f 67/126/53 91/127/53 68/128/53
f 68/128/54 92/129/54 69/130/54
f 92/129/55 70/131/55 69/130/55
f 93/132/56 71/133/56 70/131/56
f 94/62/57 72/134/57 71/133/57
f 95/52/58 65/135/58 72/134/58
f 99/68/58 97/53/58 112/63/58
f 111/136/57 99/68/57 112/63/57
f 101/58/56 111/136/56 110/137/56
f 102/46/55 110/137/55 109/138/55
f 108/139/54 102/46/54 109/138/54
f 104/140/53 108/139/53 107/23/53
f 105/33/52 107/23/52 106/40/52
f 98/141/51 106/40/51 97/142/51
f 91/127/59 107/23/59 108/139/59
f 44/36/60 99/68/60 100/143/60
f 91/127/61 109/138/61 92/129/61
f 40/42/62 102/46/62 36/49/62
f 32/45/63 104/140/63 28/32/63
f 92/129/64 110/137/64 93/132/64
f 24/34/65 98/141/65 17/70/65
f 94/62/66 110/137/66 111/136/66
f 125/121/9 127/115/9 126/144/9
f 124/145/8 125/121/8 126/144/8
f 121/117/6 124/145/6 122/122/6
f 120/146/5 121/117/5 122/122/5
f 117/147/4 120/146/4 118/120/4
f 116/148/3 117/147/3 118/120/3
f 113/149/2 116/148/2 114/119/2
f 127/150/1 113/149/1 114/119/1
f 86/10/67 119/151/67 85/8/67
f 41/38/68 122/122/68 124/145/68
f 29/57/69 120/146/69 33/51/69
f 85/8/70 117/147/70 84/6/70
f 21/66/71 116/148/71 25/61/71
f 83/5/72 117/147/72 115/152/72
f 83/5/73 113/149/73 82/2/73
f 41/38/74 126/144/74 45/30/74
f 50/1/1 49/153/1 82/2/1
f 82/2/2 49/153/2 51/4/2
f 51/4/3 52/7/3 84/6/3
f 52/7/4 53/9/4 85/8/4
f 53/9/5 54/11/5 86/10/5
f 54/11/6 55/154/6 87/12/6
f 16/13/7 64/90/7 58/14/7
f 87/12/8 55/154/8 56/16/8
f 56/16/9 50/155/9 81/18/9
f 15/19/10 80/114/10 79/20/10
f 89/22/11 106/40/11 107/23/11
f 47/25/12 18/29/12 17/26/12
f 46/28/13 19/31/13 18/29/13
f 45/30/14 20/116/14 19/31/14
f 28/32/15 104/140/15 105/33/15
f 43/35/16 47/25/16 48/27/16
f 42/37/17 46/28/17 47/25/17
f 41/38/18 45/30/18 46/28/18
f 96/39/19 97/142/19 106/40/19
f 39/41/20 43/35/20 44/36/20
f 38/43/21 42/37/21 43/35/21
f 37/44/22 41/38/22 42/37/22
f 32/45/23 36/49/23 102/46/23
f 35/48/24 39/41/24 40/42/24
f 34/50/25 38/43/25 39/41/25
f 33/51/26 37/44/26 38/43/26
f 95/52/27 112/63/27 97/53/27
f 31/55/28 35/48/28 36/49/28
f 30/56/7 34/50/7 35/48/7
f 29/57/29 33/51/29 34/50/29
f 44/36/30 100/143/30 101/58/30
f 27/59/31 31/55/31 32/45/31
f 26/60/10 30/56/10 31/55/10
f 25/61/32 29/57/32 30/56/32
f 94/62/33 111/136/33 112/63/33
f 24/34/34 23/65/34 27/59/34
f 22/64/35 26/60/35 27/59/35
f 21/66/36 25/61/36 26/60/36
f 48/27/37 17/26/37 98/67/37
f 18/69/38 23/65/38 24/34/38
f 19/71/39 22/64/39 23/65/39
f 20/72/40 21/66/40 22/64/40
f 2/15/41 4/76/41 49/73/41
f 6/75/41 51/78/41 49/73/41
f 6/75/41 8/80/41 52/77/41
f 10/79/41 53/82/41 52/77/41
f 12/81/41 54/84/41 53/82/41
f 14/83/41 55/86/41 54/84/41
f 14/83/41 16/13/41 56/85/41
f 2/15/41 50/74/41 56/85/41
f 59/89/41 57/93/41 63/87/41
f 57/93/41 58/14/41 63/87/41
f 58/14/41 64/90/41 63/87/41
f 63/87/41 62/91/41 61/88/41
f 61/88/41 60/92/41 59/89/41
f 12/81/35 62/91/35 63/87/35
f 8/80/13 60/92/13 61/88/13
f 4/76/21 57/93/21 59/89/21
f 14/83/10 63/87/10 64/90/10
f 10/79/39 61/88/39 62/91/39
f 6/75/17 59/89/17 60/92/17
f 2/15/25 58/14/25 57/93/25
f 1/94/42 65/107/42 66/95/42
f 3/96/42 66/95/42 67/97/42
f 5/98/42 67/97/42 68/99/42
f 7/100/42 68/99/42 69/101/42
f 11/103/42 9/102/42 69/101/42
f 11/103/42 70/104/42 71/105/42
f 15/19/42 13/21/42 71/105/42
f 15/19/42 72/106/42 65/107/42
f 80/114/42 73/113/42 74/108/42
f 74/108/42 75/112/42 76/109/42
f 76/109/42 77/111/42 78/110/42
f 78/110/42 79/20/42 80/114/42
f 80/114/42 74/108/42 78/110/42
f 11/103/39 78/110/39 77/111/39
f 7/100/17 76/109/17 75/112/17
f 3/96/25 74/108/25 73/113/25
f 1/94/7 73/113/7 80/114/7
f 13/21/35 79/20/35 78/110/35
f 9/102/13 77/111/13 76/109/13
f 5/98/21 75/112/21 74/108/21
f 45/30/43 126/144/43 127/115/43
f 87/12/44 123/118/44 121/117/44
f 88/17/45 125/121/45 123/118/45
f 20/72/46 127/150/46 114/119/46
f 25/61/47 116/148/47 118/120/47
f 81/18/48 128/156/48 125/121/48
f 33/51/49 120/146/49 122/122/49
f 82/2/50 113/149/50 128/123/50
f 65/124/51 96/39/51 89/22/51
f 89/22/52 90/24/52 67/126/52
f 67/126/53 90/24/53 91/127/53
f 68/128/54 91/127/54 92/129/54
f 92/129/55 93/132/55 70/131/55
f 93/132/56 94/62/56 71/133/56
f 94/62/57 95/52/57 72/134/57
f 95/52/58 96/54/58 65/135/58
f 99/68/58 98/67/58 97/53/58
f 111/136/57 100/143/57 99/68/57
f 101/58/56 100/143/56 111/136/56
f 102/46/55 101/58/55 110/137/55
f 108/139/54 103/47/54 102/46/54
f 104/140/53 103/47/53 108/139/53
f 105/33/52 104/140/52 107/23/52
f 98/141/51 105/33/51 106/40/51
f 91/127/59 90/24/59 107/23/59
f 44/36/60 48/27/60 99/68/60
f 91/127/61 108/139/61 109/138/61
f 40/42/62 101/58/62 102/46/62
f 32/45/63 103/47/63 104/140/63
f 92/129/64 109/138/64 110/137/64
f 24/34/65 105/33/65 98/141/65
f 94/62/66 93/132/66 110/137/66
f 125/121/9 128/156/9 127/115/9
f 124/145/8 123/118/8 125/121/8
f 121/117/6 123/118/6 124/145/6
f 120/146/5 119/151/5 121/117/5
f 117/147/4 119/151/4 120/146/4
f 116/148/3 115/152/3 117/147/3
f 113/149/2 115/152/2 116/148/2
f 127/150/1 128/123/1 113/149/1
f 86/10/67 121/117/67 119/151/67
f 41/38/68 37/44/68 122/122/68
f 29/57/69 118/120/69 120/146/69
f 85/8/70 119/151/70 117/147/70
f 21/66/71 114/119/71 116/148/71
f 83/5/72 84/6/72 117/147/72
f 83/5/73 115/152/73 113/149/73
f 41/38/74 124/145/74 126/144/74
