# Blender v2.91.0 OBJ File: 'room stuff.blend'
# www.blender.org
o Cube.003
v -1.000000 0.700000 0.800000
v -1.000000 2.299999 0.800000
v -0.800000 0.700000 -1.000000
v -0.800000 2.299999 -1.000000
v 1.000000 0.700000 0.800000
v 1.000000 2.299999 0.800000
v 1.000000 0.700000 -0.800000
v 1.000000 2.299999 -0.800000
v 0.800000 2.299999 -1.000000
v 0.800000 0.700000 -1.000000
v 0.800000 0.700000 1.000000
v 0.800000 2.299999 1.000000
v -1.000000 2.299999 -0.800000
v -1.000000 0.700000 -0.800000
v 0.800000 0.500000 -0.800000
v 0.800000 2.500000 -0.800000
v -0.800000 0.500000 -0.800000
v -0.800000 0.700000 1.000000
v -0.800000 2.299999 1.000000
v -0.800000 2.500000 -0.800000
v -0.800000 0.500000 0.800000
v -0.800000 2.500000 0.800000
v 0.800000 2.500000 0.800000
v 0.800000 0.500000 0.800000
v -1.000000 2.500000 1.000000
v -1.000000 2.500000 -1.000000
v 1.000000 2.500000 -1.000000
v 1.000000 2.500000 1.000000
v -1.000000 0.500000 -1.000000
v -1.000000 0.500000 1.000000
v 1.000000 0.500000 -1.000000
v 1.000000 0.500000 1.000000
v 0.950000 2.299999 -0.800000
v 0.950000 0.700000 -0.800000
v 0.950000 0.700000 0.800000
v 0.950000 2.299999 0.800000
v -0.800000 2.299999 -0.950000
v -0.800000 0.700000 -0.950000
v 0.800000 0.700000 -0.950000
v 0.800000 2.299999 -0.950000
v -0.950000 0.700000 -0.800000
v -0.950000 0.700000 0.800000
v -0.950000 2.299999 0.800000
v -0.950000 2.299999 -0.800000
v -0.800000 0.700000 0.950000
v -0.800000 2.299999 0.950000
v 0.800000 2.299999 0.950000
v 0.800000 0.700000 0.950000
v -0.800000 2.450000 0.800000
v -0.800000 2.450000 -0.800000
v 0.800000 2.450000 -0.800000
v 0.800000 2.450000 0.800000
v -0.800000 0.550000 -0.800000
v -0.800000 0.550000 0.800000
v 0.800000 0.550000 -0.800000
v 0.800000 0.550000 0.800000
vt 0.400000 0.225000
vt 0.600000 0.225000
vt 0.600000 0.225000
vt 0.600000 0.275000
vt 0.400000 0.275000
vt 0.400000 0.275000
vt 0.600000 0.725000
vt 0.600000 0.525000
vt 0.600000 0.525000
vt 0.400000 0.775000
vt 0.400000 0.975000
vt 0.400000 0.975000
vt 0.350000 0.525000
vt 0.150000 0.525000
vt 0.150000 0.525000
vt 0.650000 0.725000
vt 0.850000 0.725000
vt 0.850000 0.725000
vt 0.375000 0.500000
vt 0.625000 0.500000
vt 0.400000 0.525000
vt 0.375000 0.750000
vt 0.625000 0.750000
vt 0.400000 0.725000
vt 0.375000 0.250000
vt 0.625000 0.250000
vt 0.600000 0.475000
vt 0.400000 0.475000
vt 0.400000 0.025000
vt 0.375000 0.000000
vt 0.600000 0.025000
vt 0.625000 0.000000
vt 0.625000 1.000000
vt 0.375000 1.000000
vt 0.600000 0.775000
vt 0.600000 0.975000
vt 0.875000 0.500000
vt 0.875000 0.750000
vt 0.850000 0.525000
vt 0.650000 0.525000
vt 0.125000 0.750000
vt 0.125000 0.500000
vt 0.350000 0.725000
vt 0.150000 0.725000
vt 0.400000 0.725000
vt 0.400000 0.525000
vt 0.600000 0.725000
vt 0.600000 0.275000
vt 0.400000 0.475000
vt 0.600000 0.475000
vt 0.600000 0.025000
vt 0.400000 0.225000
vt 0.400000 0.025000
vt 0.600000 0.775000
vt 0.400000 0.775000
vt 0.600000 0.975000
vt 0.850000 0.525000
vt 0.650000 0.725000
vt 0.650000 0.525000
vt 0.350000 0.525000
vt 0.150000 0.725000
vt 0.350000 0.725000
vn 0.0000 0.0000 1.0000
vn 1.0000 0.0000 0.0000
vn 0.0000 -1.0000 0.0000
vn 0.0000 1.0000 0.0000
vn 0.0000 0.0000 -1.0000
vn -1.0000 0.0000 0.0000
s off
f 14/1/1 44/2/1 13/3/1
f 4/4/2 38/5/2 3/6/2
f 6/7/3 33/8/3 8/9/3
f 11/10/4 45/11/4 18/12/4
f 15/13/1 53/14/1 17/15/1
f 23/16/5 49/17/5 22/18/5
f 8/9/2 31/19/2 27/20/2
f 7/21/2 32/22/2 31/19/2
f 6/7/2 27/20/2 28/23/2
f 5/24/2 28/23/2 32/22/2
f 4/4/5 29/25/5 26/26/5
f 3/6/5 31/19/5 29/25/5
f 9/27/5 26/26/5 27/20/5
f 10/28/5 27/20/5 31/19/5
f 1/29/6 29/25/6 30/30/6
f 2/31/6 30/30/6 25/32/6
f 13/3/6 25/32/6 26/26/6
f 14/1/6 26/26/6 29/25/6
f 18/12/1 25/33/1 30/34/1
f 12/35/1 32/22/1 28/23/1
f 11/10/1 30/34/1 32/22/1
f 19/36/1 28/23/1 25/33/1
f 22/18/4 26/37/4 25/38/4
f 20/39/4 27/20/4 26/37/4
f 16/40/4 28/23/4 27/20/4
f 23/16/4 25/38/4 28/23/4
f 17/15/3 30/41/3 29/42/3
f 15/13/3 29/42/3 31/19/3
f 24/43/3 31/19/3 32/22/3
f 21/44/3 32/22/3 30/41/3
f 33/8/2 35/45/2 34/46/2
f 8/9/1 34/46/1 7/21/1
f 5/24/5 36/47/5 6/7/5
f 7/21/4 35/45/4 5/24/4
f 37/48/5 39/49/5 38/5/5
f 10/28/6 40/50/6 9/27/6
f 3/6/4 39/49/4 10/28/4
f 9/27/3 37/48/3 4/4/3
f 43/51/6 41/52/6 42/53/6
f 2/31/5 42/53/5 1/29/5
f 13/3/3 43/51/3 2/31/3
f 1/29/4 41/52/4 14/1/4
f 47/54/1 45/11/1 48/55/1
f 18/12/2 46/56/2 19/36/2
f 19/36/3 47/54/3 12/35/3
f 12/35/6 48/55/6 11/10/6
f 50/57/4 52/58/4 51/59/4
f 20/39/1 51/59/1 16/40/1
f 16/40/6 52/58/6 23/16/6
f 22/18/2 50/57/2 20/39/2
f 55/60/3 54/61/3 53/14/3
f 24/43/6 55/60/6 15/13/6
f 17/15/2 54/61/2 21/44/2
f 21/44/5 56/62/5 24/43/5
f 14/1/1 41/52/1 44/2/1
f 4/4/2 37/48/2 38/5/2
f 6/7/3 36/47/3 33/8/3
f 11/10/4 48/55/4 45/11/4
f 15/13/1 55/60/1 53/14/1
f 23/16/5 52/58/5 49/17/5
f 8/9/2 7/21/2 31/19/2
f 7/21/2 5/24/2 32/22/2
f 6/7/2 8/9/2 27/20/2
f 5/24/2 6/7/2 28/23/2
f 4/4/5 3/6/5 29/25/5
f 3/6/5 10/28/5 31/19/5
f 9/27/5 4/4/5 26/26/5
f 10/28/5 9/27/5 27/20/5
f 1/29/6 14/1/6 29/25/6
f 2/31/6 1/29/6 30/30/6
f 13/3/6 2/31/6 25/32/6
f 14/1/6 13/3/6 26/26/6
f 18/12/1 19/36/1 25/33/1
f 12/35/1 11/10/1 32/22/1
f 11/10/1 18/12/1 30/34/1
f 19/36/1 12/35/1 28/23/1
f 22/18/4 20/39/4 26/37/4
f 20/39/4 16/40/4 27/20/4
f 16/40/4 23/16/4 28/23/4
f 23/16/4 22/18/4 25/38/4
f 17/15/3 21/44/3 30/41/3
f 15/13/3 17/15/3 29/42/3
f 24/43/3 15/13/3 31/19/3
f 21/44/3 24/43/3 32/22/3
f 33/8/2 36/47/2 35/45/2
f 8/9/1 33/8/1 34/46/1
f 5/24/5 35/45/5 36/47/5
f 7/21/4 34/46/4 35/45/4
f 37/48/5 40/50/5 39/49/5
f 10/28/6 39/49/6 40/50/6
f 3/6/4 38/5/4 39/49/4
f 9/27/3 40/50/3 37/48/3
f 43/51/6 44/2/6 41/52/6
f 2/31/5 43/51/5 42/53/5
f 13/3/3 44/2/3 43/51/3
f 1/29/4 42/53/4 41/52/4
f 47/54/1 46/56/1 45/11/1
f 18/12/2 45/11/2 46/56/2
f 19/36/3 46/56/3 47/54/3
f 12/35/6 47/54/6 48/55/6
f 50/57/4 49/17/4 52/58/4
f 20/39/1 50/57/1 51/59/1
f 16/40/6 51/59/6 52/58/6
f 22/18/2 49/17/2 50/57/2
f 55/60/3 56/62/3 54/61/3
f 24/43/6 56/62/6 55/60/6
f 17/15/2 53/14/2 54/61/2
f 21/44/5 54/61/5 56/62/5
